<?xml version="1.0" encoding="UTF-8" standalone="no"?>
<!DOCTYPE svg PUBLIC "-//W3C//DTD SVG 1.1//EN" "http://www.w3.org/Graphics/SVG/1.1/DTD/svg11.dtd">
<svg width="100%" height="100%" viewBox="0 0 1880 1556" version="1.1" xmlns="http://www.w3.org/2000/svg" xmlns:xlink="http://www.w3.org/1999/xlink" xml:space="preserve" style="fill-rule:evenodd;clip-rule:evenodd;stroke-linejoin:round;stroke-miterlimit:1.41421;">
    <g id="Layer1">
        <g transform="matrix(1.00113,0,0,1.06091,-1.0663,-94.771)">
            <path d="M650.018,1541C650.018,1541 651.615,1546.12 652.942,1550.38C653.979,1553.71 657.216,1556 660.893,1556C702.554,1556 940,1556 940,1556L940,1544.89L650.018,1541Z" style="fill:rgb(161,167,171);"/>
        </g>
        <g transform="matrix(-1.00341,0,0,1.06091,1882.54,-94.771)">
            <path d="M650.018,1541C650.018,1541 651.616,1546.13 652.943,1550.39C653.979,1553.72 657.208,1556 660.875,1556C702.486,1556 940,1556 940,1556L940,1544.89L650.018,1541Z" style="fill:rgb(161,167,171);"/>
        </g>
        <g transform="matrix(2.01734,0,-1.25305e-16,1.16454,-239.288,40.8109)">
            <path d="M1050.54,854.663L118.616,854.663L118.616,1020.81C118.616,1043.57 129.285,1062.06 142.428,1062.06L1026.72,1062.06C1039.87,1062.06 1050.54,1043.57 1050.54,1020.81L1050.54,854.663Z" style="fill:rgb(217,217,217);"/>
        </g>
        <path d="M745.857,1277.62C745.857,1277.62 737.583,1470.33 712.699,1497.22C704.267,1506.33 675.585,1520.86 652.907,1531.48C650.059,1533.03 648.626,1536.32 649.427,1539.46C650.228,1542.6 653.059,1544.8 656.302,1544.79C737.63,1544.77 940,1544.55 940,1544.55L940,1277.62L745.857,1277.62Z" style="fill:rgb(189,195,199);"/>
        <g transform="matrix(-1.00211,0,0,1,1881.31,0)">
            <path d="M745.857,1277.62C745.857,1277.62 737.583,1470.33 712.699,1497.22C704.268,1506.33 675.59,1520.85 652.913,1531.48C650.069,1533.03 648.636,1536.31 649.434,1539.46C650.233,1542.6 653.059,1544.8 656.296,1544.8C737.62,1544.77 940,1544.55 940,1544.55L940,1277.62L745.857,1277.62Z" style="fill:rgb(189,195,199);"/>
        </g>
        <path d="M1880,48C1880,21.508 1858.49,0 1832,0L48,0C21.508,0 0,21.508 0,48L0,1036.1L1880,1036.1L1880,48Z" style="fill:rgb(19,32,44);"/>
    </g>
</svg>
