<?xml version="1.0" encoding="UTF-8" standalone="no"?>
<!-- Made by Dmitry Chestnykh (http://www.codingrobots.com) on Feb 25, 2009 -->
<svg id="svg2" xmlns:rdf="http://www.w3.org/1999/02/22-rdf-syntax-ns#" xmlns="http://www.w3.org/2000/svg" viewBox="0 0 707.42 398.84" height="100%" width="100%" version="1.0" xmlns:cc="http://creativecommons.org/ns#" xmlns:xlink="http://www.w3.org/1999/xlink" xmlns:dc="http://purl.org/dc/elements/1.1/">
 <defs id="defs4">
  <linearGradient id="linearGradient3905" x1="359.08" gradientUnits="userSpaceOnUse" x2="359.08" gradientTransform="matrix(.99992 0 0 .86395 1.2423 49.596)" y1="465.67" y2="472.52">
   <stop id="stop3907" stop-opacity=".70085" offset="0"/>
   <stop id="stop3909" stop-color="#4b5151" stop-opacity="0" offset="1"/>
  </linearGradient>
  <linearGradient id="linearGradient3291">
   <stop id="stop3293" stop-color="#b3b3b3" offset="0"/>
   <stop id="stop3299" stop-color="#e9e9e9" offset=".02"/>
   <stop id="stop3297" stop-color="#d4d4d7" offset=".04"/>
   <stop id="stop3303" stop-color="#e4e4e6" offset="0.96"/>
   <stop id="stop3301" stop-color="#f4f4f4" offset="0.98"/>
   <stop id="stop3295" stop-color="#b3b3b3" offset="1"/>
  </linearGradient>
  <linearGradient id="linearGradient3231">
   <stop id="stop3233" stop-color="#fff" offset="0"/>
   <stop id="stop3235" stop-color="#fff" stop-opacity=".85470" offset="1"/>
  </linearGradient>
  <radialGradient id="radialGradient3257" xlink:href="#linearGradient3231" gradientUnits="userSpaceOnUse" cy="101.43" cx="368.78" gradientTransform="matrix(1 0 0 .95 0 5.0362)" r="3.4688"/>
  <linearGradient id="linearGradient3289" x1="19.123" xlink:href="#linearGradient3291" gradientUnits="userSpaceOnUse" y1="438.17" gradientTransform="matrix(1.0024 0 0 .73748 -1.0933 132.96)" x2="724.58" y2="438.17"/>
  <linearGradient id="linearGradient3321" x1="423.08" gradientUnits="userSpaceOnUse" y1="35.017" gradientTransform="matrix(1.0295 0 0 1.0095 -11.008 -3.5235)" x2="468.94" y2="414.62">
   <stop id="stop3315" stop-color="#91404b" offset="0"/>
   <stop id="stop3953" stop-color="#a3466f" offset=".40632"/>
   <stop id="stop3949" stop-color="#915378" offset=".69016"/>
   <stop id="stop3317" stop-color="#7d4984" offset="1"/>
  </linearGradient>
  <linearGradient id="linearGradient3339" x1="359.08" gradientUnits="userSpaceOnUse" y1="465.67" gradientTransform="matrix(.99992 0 0 .86395 1.2423 49.596)" x2="359.08" y2="472.52">
   <stop id="stop3335" stop-color="#c6c6c6" offset="0"/>
   <stop id="stop3337" stop-color="#f2f2f2" offset="1"/>
  </linearGradient>
  <linearGradient id="linearGradient3466" x1="334.45" gradientUnits="userSpaceOnUse" y1="470.3" gradientTransform="matrix(1.0083 0 0 .76407 -3.098 104.51)" x2="334.45" y2="485.04">
   <stop id="stop3356" stop-color="#d1d4d6" offset="0"/>
   <stop id="stop3947" stop-color="#a1a5a6" offset=".5"/>
   <stop id="stop3483" offset="1"/>
  </linearGradient>
  <linearGradient id="linearGradient3919" y2="467.14" xlink:href="#linearGradient3905" gradientUnits="userSpaceOnUse" x2="317.67" gradientTransform="matrix(-1.0006 0 0 .84879 736.21 56.813)" y1="467.8" x1="310.54"/>
  <linearGradient id="linearGradient3921" y2="467.14" xlink:href="#linearGradient3905" gradientUnits="userSpaceOnUse" x2="317.67" gradientTransform="matrix(.99992 0 0 .86395 1.3144 49.583)" y1="467.8" x1="310.54"/>
  <linearGradient id="linearGradient3929" y2="455.96" xlink:href="#linearGradient3291" gradientUnits="userSpaceOnUse" x2="725.5" gradientTransform="matrix(.99957 0 0 1 -.049558 .13646)" y1="455.96" x1="18.2"/>
  <linearGradient id="linearGradient3937" y2="464.07" gradientUnits="userSpaceOnUse" x2="725.14" gradientTransform="matrix(1 0 0 2.3955 0 -648.19)" y1="464.07" x1="18.142">
   <stop id="stop3941" stop-color="#cfcfcf" stop-opacity="0" offset="0"/>
   <stop id="stop3945" stop-color="#fff" stop-opacity=".84615" offset=".5"/>
   <stop id="stop3943" stop-color="#cfcfcf" stop-opacity="0" offset="1"/>
  </linearGradient>
  <linearGradient id="linearGradient3965" y2="450.9" gradientUnits="userSpaceOnUse" x2="350.38" gradientTransform="matrix(1.4772 0 0 .89908 -185.86 44.389)" y1="439.86" x1="350.38">
   <stop id="stop3969" offset="0"/>
   <stop id="stop3971" stop-color="#4e4e4e" offset=".5"/>
   <stop id="stop3973" stop-color="#212121" offset="1"/>
  </linearGradient>
  <linearGradient id="linearGradient3975" y2="423.04" xlink:href="#linearGradient3231" gradientUnits="userSpaceOnUse" x2="656.6" gradientTransform="matrix(1.3271 0 0 1.0058 -214.41 2.1515)" y1="97.768" x1="525.28"/>
 </defs>
 <g id="layer1" transform="translate(-18.142 -83.649)">
  <rect id="rect2453" stroke-linejoin="bevel" rx="19.999" ry="20.788" height="377.99" width="542.43" stroke="#b3b7b7" stroke-linecap="round" y="84.649" x="101.03" stroke-width="2" fill="#d0d0d2"/>
  <rect id="rect3225" stroke-linejoin="bevel" rx="17" ry="17" height="368.17" width="535.76" stroke="#000" stroke-linecap="round" y="88.266" x="103.91" stroke-width="1.0088"/>
  <rect id="rect3227" opacity=".87065" height="310" width="495" y="111.49" x="123.14" fill="url(#linearGradient3321)"/>
  <path id="path3229" opacity=".054167" d="m500.12 88.935-261.42 364.08 399.49 1.02s1.2887-330.92 0.74953-345.69c-0.56-15.474-9.16-19.029-26.92-19.199-18.68-0.179-111.9-0.221-111.9-0.221z" fill-rule="evenodd" fill="url(#linearGradient3975)"/>
  <path id="path3241" opacity=".16418" d="m372.25 100.72a3.4688 3.2954 0 1 1 -6.94 0 3.4688 3.2954 0 1 1 6.94 0z" transform="matrix(1.2563 0 0 1.2563 -94.56 -25.955)" fill="url(#radialGradient3257)"/>
  <rect id="rect3279" stroke-linejoin="bevel" height="15.965" width="706.2" stroke="url(#linearGradient3929)" stroke-linecap="round" y="448.12" x="18.544" stroke-width=".80483" fill="url(#linearGradient3289)"/>
  <path id="rect3323" opacity=".87065" fill="url(#linearGradient3339)" d="m315.17 447.66v1.5366c0 4.788 4.46 8.6421 10 8.6421h86.93c5.54 0 10-3.8541 10-8.6421v-1.5366h-106.93z"/>
  <rect id="rect3481" height="2" width="707" y="462.49" x="18.142" fill="url(#linearGradient3937)"/>
  <path id="path3917" opacity=".87065" d="m422.08 447.89v1.5096c0 4.7039-4.4629 8.4904-10.007 8.4904h-86.987c-5.5436 0-10.007-3.7865-10.007-8.4904v-1.5096h107z" fill="url(#linearGradient3919)"/>
  <path id="path3901" opacity=".87065" d="m315.24 447.65v1.5366c0 4.788 4.46 8.6421 10 8.6421h86.93c5.54 0 10-3.8541 10-8.6421v-1.5366h-106.93z" fill="url(#linearGradient3921)"/>
  <path id="rect3341" d="m18.542 464.47c6.2184 4.8804 30.22 6.9503 39.6 7 216.02 0.0348 620 0 620 0 7.65 0.00094 43.32-3.2917 46.6-7z" fill="url(#linearGradient3466)"/>
  <rect id="rect3955" opacity=".27917" stroke-linejoin="bevel" rx="16.93" ry="16.131" height="349.35" width="533.56" stroke="#fff" stroke-linecap="round" y="88.803" x="104.97" fill="none"/>
  <rect id="rect3957" height="7.1927" width="443.17" y="439.86" x="147.89" fill="url(#linearGradient3965)"/>
 </g>
</svg>
